<mxfile host="Electron" modified="2023-04-16T08:46:55.754Z" agent="Mozilla/5.0 (Windows NT 10.0; Win64; x64) AppleWebKit/537.36 (KHTML, like Gecko) draw.io/21.1.2 Chrome/106.0.5249.199 Electron/21.4.3 Safari/537.36" etag="07dEo5yWYDfUCO16w38i" version="21.1.2" type="device">
  <diagram name="Page-1" id="KBW3ugEOn-Q8geGjZRpk">
    <mxGraphModel dx="3484" dy="2393" grid="0" gridSize="10" guides="1" tooltips="1" connect="1" arrows="1" fold="1" page="0" pageScale="1" pageWidth="850" pageHeight="1100" math="0" shadow="0">
      <root>
        <mxCell id="0" />
        <mxCell id="1" parent="0" />
        <mxCell id="JtZdGqvp9lfBUKnp-gQf-1" value="DIO_vdInitialization&lt;br&gt;" style="text;html=1;align=center;verticalAlign=middle;resizable=0;points=[];autosize=1;strokeColor=none;fillColor=none;fontSize=16;" vertex="1" parent="1">
          <mxGeometry x="-1243" y="-998" width="156" height="31" as="geometry" />
        </mxCell>
        <mxCell id="JtZdGqvp9lfBUKnp-gQf-7" style="edgeStyle=none;curved=1;rounded=0;orthogonalLoop=1;jettySize=auto;html=1;entryX=0.5;entryY=0;entryDx=0;entryDy=0;entryPerimeter=0;fontSize=12;startSize=8;endSize=8;" edge="1" parent="1" source="JtZdGqvp9lfBUKnp-gQf-2" target="JtZdGqvp9lfBUKnp-gQf-3">
          <mxGeometry relative="1" as="geometry" />
        </mxCell>
        <UserObject label="&lt;div style=&quot;font-size: 1px&quot;&gt;&lt;font style=&quot;font-size: 11.29px; direction: ltr; letter-spacing: 0px; line-height: 120%; opacity: 1;&quot;&gt;Start&lt;br&gt;&lt;/font&gt;&lt;/div&gt;" Function="EN_DIO_Error_T DIO_init(uint8_t pinNumber, EN_DIO_PORT_T portNumber, EN_DIO_DIRECTION_T direction);" tags="Flowchart" id="JtZdGqvp9lfBUKnp-gQf-2">
          <mxCell style="verticalAlign=middle;align=center;overflow=width;vsdxID=30;fillColor=#dae8fc;shape=stencil(tVLREoIgEPwaHnEQxsl3s/9gEpSJwDko7e+DsEkze2l627vdu5uFRaxyHe8FosR5sCcxqMZ3iO0Rpcp0ApQPCLEasUpaEC3Yi2lS3fOojOhsr3HDmObyMtsVcYqS29Qh5FEfklwrM5OXeUa/yjkcAwfr7TDpiyTfXvjkMR+Vw2A998qaBac5tAKHU1hq3i4oNwjRr9ofvayt/+Rk+yX/4iWA159KpXWKxJx/z0Bopfyw+g4=);strokeColor=#6c8ebf;spacingTop=-1;spacingBottom=-1;spacingLeft=-1;spacingRight=-1;points=[[0.5,1,0],[0.5,0,0],[0,0.5,0],[1,0.5,0]];labelBackgroundColor=none;rounded=1;html=1;whiteSpace=wrap;fontFamily=Calibri;" vertex="1" parent="1">
            <mxGeometry x="-1215.5" y="-923" width="101" height="38" as="geometry" />
          </mxCell>
        </UserObject>
        <mxCell id="JtZdGqvp9lfBUKnp-gQf-8" style="edgeStyle=none;curved=1;rounded=0;orthogonalLoop=1;jettySize=auto;html=1;fontSize=12;startSize=8;endSize=8;" edge="1" parent="1" source="JtZdGqvp9lfBUKnp-gQf-3" target="JtZdGqvp9lfBUKnp-gQf-4">
          <mxGeometry relative="1" as="geometry" />
        </mxCell>
        <UserObject label="&lt;div style=&quot;font-size: 1px&quot;&gt;&lt;font style=&quot;font-size: 11.29px; direction: ltr; letter-spacing: 0px; line-height: 120%; opacity: 1;&quot;&gt;Configure &lt;i&gt;Pin Direction &lt;/i&gt;and &lt;i&gt;Initial Value &lt;/i&gt;through &lt;i&gt;DIO_Config.h&lt;/i&gt; file&lt;/font&gt;&lt;/div&gt;" Function="EN_DIO_Error_T DIO_toggle(uint8_t pinNumber, EN_DIO_PORT_T portNumber);  " tags="Flowchart" id="JtZdGqvp9lfBUKnp-gQf-3">
          <mxCell style="verticalAlign=middle;align=center;overflow=width;vsdxID=274;fillColor=#d5e8d4;shape=stencil(nZBLDoAgDERP0z3SIyjew0SURgSD+Lu9kMZoXLhwN9O+tukAlrNpJg1SzDH4QW/URgNYgZTkjA4UkwJUgGXng+6DX1zLfmoymdXo17xh5zmRJ6Q42BWCfc2oJfdAr+Yv+AP9Cb7OJ3H/2JG1HNGz/84klThPVCc=);strokeColor=#82b366;spacingTop=-1;spacingBottom=-1;spacingLeft=-1;spacingRight=-1;points=[[0,0.5,0],[1,0.5,0],[0.5,1,0],[0.5,0,0]];labelBackgroundColor=none;rounded=1;html=1;whiteSpace=wrap;fontFamily=Calibri;" vertex="1" parent="1">
            <mxGeometry x="-1231.75" y="-828" width="133.5" height="51" as="geometry" />
          </mxCell>
        </UserObject>
        <mxCell id="JtZdGqvp9lfBUKnp-gQf-9" style="edgeStyle=none;curved=1;rounded=0;orthogonalLoop=1;jettySize=auto;html=1;entryX=0.5;entryY=0;entryDx=0;entryDy=0;entryPerimeter=0;fontSize=12;startSize=8;endSize=8;" edge="1" parent="1" source="JtZdGqvp9lfBUKnp-gQf-4" target="JtZdGqvp9lfBUKnp-gQf-5">
          <mxGeometry relative="1" as="geometry" />
        </mxCell>
        <UserObject label="&lt;div style=&quot;&quot;&gt;&lt;span style=&quot;font-size: 11.29px;&quot;&gt;&lt;i&gt;Linker r&lt;/i&gt;eplaces all &lt;i&gt;MACROS&lt;/i&gt; with their decimal values&lt;/span&gt;&lt;/div&gt;" Function="EN_DIO_Error_T DIO_toggle(uint8_t pinNumber, EN_DIO_PORT_T portNumber);  " tags="Flowchart" id="JtZdGqvp9lfBUKnp-gQf-4">
          <mxCell style="verticalAlign=middle;align=center;overflow=width;vsdxID=274;fillColor=#d5e8d4;shape=stencil(nZBLDoAgDERP0z3SIyjew0SURgSD+Lu9kMZoXLhwN9O+tukAlrNpJg1SzDH4QW/URgNYgZTkjA4UkwJUgGXng+6DX1zLfmoymdXo17xh5zmRJ6Q42BWCfc2oJfdAr+Yv+AP9Cb7OJ3H/2JG1HNGz/84klThPVCc=);strokeColor=#82b366;spacingTop=-1;spacingBottom=-1;spacingLeft=-1;spacingRight=-1;points=[[0,0.5,0],[1,0.5,0],[0.5,1,0],[0.5,0,0]];labelBackgroundColor=none;rounded=1;html=1;whiteSpace=wrap;fontFamily=Calibri;" vertex="1" parent="1">
            <mxGeometry x="-1231.75" y="-720" width="133.5" height="51" as="geometry" />
          </mxCell>
        </UserObject>
        <mxCell id="JtZdGqvp9lfBUKnp-gQf-10" style="edgeStyle=none;curved=1;rounded=0;orthogonalLoop=1;jettySize=auto;html=1;fontSize=12;startSize=8;endSize=8;" edge="1" parent="1" source="JtZdGqvp9lfBUKnp-gQf-5">
          <mxGeometry relative="1" as="geometry">
            <mxPoint x="-1165" y="-504.33332316080714" as="targetPoint" />
          </mxGeometry>
        </mxCell>
        <UserObject label="&lt;div style=&quot;&quot;&gt;&lt;span style=&quot;font-size: 11.29px;&quot;&gt;Assign values in &lt;i&gt;DDRx&lt;/i&gt; and &lt;i&gt;PORTx&lt;/i&gt; registers using &lt;i&gt;CONC&lt;/i&gt;&lt;/span&gt;&lt;/div&gt;" Function="EN_DIO_Error_T DIO_toggle(uint8_t pinNumber, EN_DIO_PORT_T portNumber);  " tags="Flowchart" id="JtZdGqvp9lfBUKnp-gQf-5">
          <mxCell style="verticalAlign=middle;align=center;overflow=width;vsdxID=274;fillColor=#d5e8d4;shape=stencil(nZBLDoAgDERP0z3SIyjew0SURgSD+Lu9kMZoXLhwN9O+tukAlrNpJg1SzDH4QW/URgNYgZTkjA4UkwJUgGXng+6DX1zLfmoymdXo17xh5zmRJ6Q42BWCfc2oJfdAr+Yv+AP9Cb7OJ3H/2JG1HNGz/84klThPVCc=);strokeColor=#82b366;spacingTop=-1;spacingBottom=-1;spacingLeft=-1;spacingRight=-1;points=[[0,0.5,0],[1,0.5,0],[0.5,1,0],[0.5,0,0]];labelBackgroundColor=none;rounded=1;html=1;whiteSpace=wrap;fontFamily=Calibri;" vertex="1" parent="1">
            <mxGeometry x="-1231.75" y="-612" width="133.5" height="51" as="geometry" />
          </mxCell>
        </UserObject>
        <UserObject label="&lt;div style=&quot;font-size: 1px&quot;&gt;&lt;font style=&quot;font-size: 11.29px; direction: ltr; letter-spacing: 0px; line-height: 120%; opacity: 1;&quot;&gt;Return&lt;br&gt;&lt;/font&gt;&lt;/div&gt;" Function="EN_DIO_Error_T DIO_init(uint8_t pinNumber, EN_DIO_PORT_T portNumber, EN_DIO_DIRECTION_T direction);" tags="Flowchart" id="JtZdGqvp9lfBUKnp-gQf-6">
          <mxCell style="verticalAlign=middle;align=center;overflow=width;vsdxID=30;shape=stencil(tVLREoIgEPwaHnEQxsl3s/9gEpSJwDko7e+DsEkze2l627vdu5uFRaxyHe8FosR5sCcxqMZ3iO0Rpcp0ApQPCLEasUpaEC3Yi2lS3fOojOhsr3HDmObyMtsVcYqS29Qh5FEfklwrM5OXeUa/yjkcAwfr7TDpiyTfXvjkMR+Vw2A998qaBac5tAKHU1hq3i4oNwjRr9ofvayt/+Rk+yX/4iWA159KpXWKxJx/z0Bopfyw+g4=);spacingTop=-1;spacingBottom=-1;spacingLeft=-1;spacingRight=-1;points=[[0.5,1,0],[0.5,0,0],[0,0.5,0],[1,0.5,0]];labelBackgroundColor=none;rounded=1;html=1;whiteSpace=wrap;fontFamily=Calibri;fillColor=#ffe6cc;strokeColor=#d79b00;" vertex="1" parent="1">
            <mxGeometry x="-1215.5" y="-504" width="101" height="38" as="geometry" />
          </mxCell>
        </UserObject>
        <mxCell id="JtZdGqvp9lfBUKnp-gQf-11" value="&lt;span id=&quot;docs-internal-guid-0498e8ac-7fff-8ca4-c713-99d38d3e4bf1&quot;&gt;&lt;/span&gt;" style="text;html=1;align=center;verticalAlign=middle;resizable=0;points=[];autosize=1;strokeColor=none;fillColor=none;fontSize=16;" vertex="1" parent="1">
          <mxGeometry x="-845" y="-1000.5" width="18" height="12" as="geometry" />
        </mxCell>
        <mxCell id="JtZdGqvp9lfBUKnp-gQf-12" value="&lt;span id=&quot;docs-internal-guid-0498e8ac-7fff-8ca4-c713-99d38d3e4bf1&quot;&gt;&lt;/span&gt;" style="text;html=1;align=center;verticalAlign=middle;resizable=0;points=[];autosize=1;strokeColor=none;fillColor=none;fontSize=16;" vertex="1" parent="1">
          <mxGeometry x="-809" y="-989.5" width="18" height="12" as="geometry" />
        </mxCell>
        <mxCell id="JtZdGqvp9lfBUKnp-gQf-13" value="DIO_u8SetPinDirection&lt;span id=&quot;docs-internal-guid-f30f6734-7fff-c0fb-50f9-8cd0fa834b5f&quot;&gt;&lt;/span&gt;" style="text;html=1;align=center;verticalAlign=middle;resizable=0;points=[];autosize=1;strokeColor=none;fillColor=none;fontSize=16;" vertex="1" parent="1">
          <mxGeometry x="-866.76" y="-995" width="183" height="31" as="geometry" />
        </mxCell>
        <mxCell id="JtZdGqvp9lfBUKnp-gQf-21" style="edgeStyle=none;curved=1;rounded=0;orthogonalLoop=1;jettySize=auto;html=1;fontSize=12;startSize=8;endSize=8;" edge="1" parent="1" source="JtZdGqvp9lfBUKnp-gQf-16" target="JtZdGqvp9lfBUKnp-gQf-18">
          <mxGeometry relative="1" as="geometry" />
        </mxCell>
        <UserObject label="" Function="EN_DIO_Error_T DIO_init(uint8_t pinNumber, EN_DIO_PORT_T portNumber, EN_DIO_DIRECTION_T direction);" tags="Flowchart" id="JtZdGqvp9lfBUKnp-gQf-16">
          <mxCell style="vsdxID=219;fillColor=#fff2cc;shape=stencil(UzV2Ls5ILEhVNTIoLinKz04tz0wpyVA1dlE1MsrMy0gtyiwBslSNXVWNndPyi1LTi/JL81Ig/IJEkEoQKze/DGRCBUSfAUiHkUElhGcK4bpBVOZk5iGpNEVVikeloQHZpsK0YlWLz1QgA+HFtMycHEgIIcujBwlQCBKcxq4A);strokeColor=#d6b656;spacingTop=-1;spacingBottom=-1;spacingLeft=-1;spacingRight=-1;points=[[0,0.5,0],[1,0.5,0],[0.5,0,0],[0.5,1,0]];labelBackgroundColor=none;rounded=1;html=1;whiteSpace=wrap;fontFamily=Calibri;" vertex="1" parent="1">
            <mxGeometry x="-825.76" y="-839" width="101" height="76" as="geometry" />
          </mxCell>
        </UserObject>
        <mxCell id="JtZdGqvp9lfBUKnp-gQf-17" value="&lt;div style=&quot;font-size: 11.29px;&quot;&gt;&lt;i&gt;Port&lt;/i&gt; value is from &lt;i&gt;A&lt;/i&gt; to &lt;i&gt;D&lt;/i&gt;&lt;/div&gt;" style="text;vsdxID=219;fillColor=none;gradientColor=none;strokeColor=none;spacingTop=-1;spacingBottom=-1;spacingLeft=-1;spacingRight=-1;points=[[0,0.5,0],[1,0.5,0],[0.5,0,0],[0.5,1,0]];labelBackgroundColor=none;rounded=1;html=1;whiteSpace=wrap;verticalAlign=middle;align=center;overflow=width;;html=1;fontColor=#000000;fontFamily=Calibri;" vertex="1" parent="JtZdGqvp9lfBUKnp-gQf-16">
          <mxGeometry x="8.17" y="12.5" width="84.67" height="57.15" as="geometry" />
        </mxCell>
        <UserObject label="" Function="EN_DIO_Error_T DIO_init(uint8_t pinNumber, EN_DIO_PORT_T portNumber, EN_DIO_DIRECTION_T direction);" tags="Flowchart" id="JtZdGqvp9lfBUKnp-gQf-18">
          <mxCell style="vsdxID=219;fillColor=#fff2cc;shape=stencil(UzV2Ls5ILEhVNTIoLinKz04tz0wpyVA1dlE1MsrMy0gtyiwBslSNXVWNndPyi1LTi/JL81Ig/IJEkEoQKze/DGRCBUSfAUiHkUElhGcK4bpBVOZk5iGpNEVVikeloQHZpsK0YlWLz1QgA+HFtMycHEgIIcujBwlQCBKcxq4A);strokeColor=#d6b656;spacingTop=-1;spacingBottom=-1;spacingLeft=-1;spacingRight=-1;points=[[0,0.5,0],[1,0.5,0],[0.5,0,0],[0.5,1,0]];labelBackgroundColor=none;rounded=1;html=1;whiteSpace=wrap;fontFamily=Calibri;" vertex="1" parent="1">
            <mxGeometry x="-825.75" y="-716" width="101" height="76" as="geometry" />
          </mxCell>
        </UserObject>
        <mxCell id="JtZdGqvp9lfBUKnp-gQf-39" style="edgeStyle=none;curved=1;rounded=0;orthogonalLoop=1;jettySize=auto;html=1;fontSize=12;startSize=8;endSize=8;exitX=1;exitY=0.5;exitDx=0;exitDy=0;exitPerimeter=0;" edge="1" parent="JtZdGqvp9lfBUKnp-gQf-18" source="JtZdGqvp9lfBUKnp-gQf-18">
          <mxGeometry relative="1" as="geometry">
            <mxPoint x="244.75" y="38" as="targetPoint" />
          </mxGeometry>
        </mxCell>
        <mxCell id="JtZdGqvp9lfBUKnp-gQf-19" value="&lt;div style=&quot;font-size: 11.29px;&quot;&gt;&lt;i&gt;Pin&lt;/i&gt; value is from&amp;nbsp;&lt;/div&gt;&lt;div style=&quot;font-size: 11.29px;&quot;&gt;&lt;i&gt;0&lt;/i&gt; to &lt;i&gt;7&lt;/i&gt;&lt;/div&gt;" style="text;vsdxID=219;fillColor=none;gradientColor=none;strokeColor=none;spacingTop=-1;spacingBottom=-1;spacingLeft=-1;spacingRight=-1;points=[[0,0.5,0],[1,0.5,0],[0.5,0,0],[0.5,1,0]];labelBackgroundColor=none;rounded=1;html=1;whiteSpace=wrap;verticalAlign=middle;align=center;overflow=width;;html=1;fontColor=#000000;fontFamily=Calibri;" vertex="1" parent="JtZdGqvp9lfBUKnp-gQf-18">
          <mxGeometry x="8.16" y="14" width="84.67" height="57.15" as="geometry" />
        </mxCell>
        <mxCell id="JtZdGqvp9lfBUKnp-gQf-29" style="edgeStyle=none;curved=1;rounded=0;orthogonalLoop=1;jettySize=auto;html=1;entryX=0.5;entryY=0;entryDx=0;entryDy=0;entryPerimeter=0;fontSize=12;startSize=8;endSize=8;" edge="1" parent="1" source="JtZdGqvp9lfBUKnp-gQf-20" target="JtZdGqvp9lfBUKnp-gQf-23">
          <mxGeometry relative="1" as="geometry" />
        </mxCell>
        <UserObject label="&lt;div style=&quot;&quot;&gt;&lt;span style=&quot;font-size: 11.29px;&quot;&gt;Set the required &lt;i&gt;Pin Direction&lt;/i&gt; in the required &lt;i&gt;DDRx&lt;/i&gt; register&lt;/span&gt;&lt;/div&gt;" Function="EN_DIO_Error_T DIO_toggle(uint8_t pinNumber, EN_DIO_PORT_T portNumber);  " tags="Flowchart" id="JtZdGqvp9lfBUKnp-gQf-20">
          <mxCell style="verticalAlign=middle;align=center;overflow=width;vsdxID=274;fillColor=#d5e8d4;shape=stencil(nZBLDoAgDERP0z3SIyjew0SURgSD+Lu9kMZoXLhwN9O+tukAlrNpJg1SzDH4QW/URgNYgZTkjA4UkwJUgGXng+6DX1zLfmoymdXo17xh5zmRJ6Q42BWCfc2oJfdAr+Yv+AP9Cb7OJ3H/2JG1HNGz/84klThPVCc=);strokeColor=#82b366;spacingTop=-1;spacingBottom=-1;spacingLeft=-1;spacingRight=-1;points=[[0,0.5,0],[1,0.5,0],[0.5,1,0],[0.5,0,0]];labelBackgroundColor=none;rounded=1;html=1;whiteSpace=wrap;fontFamily=Calibri;" vertex="1" parent="1">
            <mxGeometry x="-842" y="-591" width="133.5" height="51" as="geometry" />
          </mxCell>
        </UserObject>
        <UserObject label="&lt;div style=&quot;font-size: 1px&quot;&gt;&lt;font style=&quot;font-size: 11.29px; direction: ltr; letter-spacing: 0px; line-height: 120%; opacity: 1;&quot;&gt;Return&amp;nbsp;&lt;i&gt;STD_TYPES_OK&lt;/i&gt;&lt;br&gt;&lt;/font&gt;&lt;/div&gt;" Function="EN_DIO_Error_T DIO_init(uint8_t pinNumber, EN_DIO_PORT_T portNumber, EN_DIO_DIRECTION_T direction);" tags="Flowchart" id="JtZdGqvp9lfBUKnp-gQf-23">
          <mxCell style="verticalAlign=middle;align=center;overflow=width;vsdxID=30;shape=stencil(tVLREoIgEPwaHnEQxsl3s/9gEpSJwDko7e+DsEkze2l627vdu5uFRaxyHe8FosR5sCcxqMZ3iO0Rpcp0ApQPCLEasUpaEC3Yi2lS3fOojOhsr3HDmObyMtsVcYqS29Qh5FEfklwrM5OXeUa/yjkcAwfr7TDpiyTfXvjkMR+Vw2A998qaBac5tAKHU1hq3i4oNwjRr9ofvayt/+Rk+yX/4iWA159KpXWKxJx/z0Bopfyw+g4=);spacingTop=-1;spacingBottom=-1;spacingLeft=-1;spacingRight=-1;points=[[0.5,1,0],[0.5,0,0],[0,0.5,0],[1,0.5,0]];labelBackgroundColor=none;rounded=1;html=1;whiteSpace=wrap;fontFamily=Calibri;fillColor=#d5e8d4;strokeColor=#82b366;" vertex="1" parent="1">
            <mxGeometry x="-836.75" y="-486" width="123" height="38" as="geometry" />
          </mxCell>
        </UserObject>
        <mxCell id="JtZdGqvp9lfBUKnp-gQf-24" style="edgeStyle=none;curved=1;rounded=0;orthogonalLoop=1;jettySize=auto;html=1;fontSize=12;startSize=8;endSize=8;exitX=0.5;exitY=1;exitDx=0;exitDy=0;exitPerimeter=0;entryX=0.5;entryY=0;entryDx=0;entryDy=0;entryPerimeter=0;" edge="1" parent="1" source="JtZdGqvp9lfBUKnp-gQf-18" target="JtZdGqvp9lfBUKnp-gQf-20">
          <mxGeometry relative="1" as="geometry">
            <mxPoint x="-773.76" y="-635" as="sourcePoint" />
            <mxPoint x="-775.59" y="-593" as="targetPoint" />
          </mxGeometry>
        </mxCell>
        <UserObject label="&lt;div style=&quot;font-size: 1px&quot;&gt;&lt;font style=&quot;font-size: 11.29px; direction: ltr; letter-spacing: 0px; line-height: 120%; opacity: 1;&quot;&gt;Start&lt;/font&gt;&lt;/div&gt;" Function="EN_DIO_Error_T DIO_init(uint8_t pinNumber, EN_DIO_PORT_T portNumber, EN_DIO_DIRECTION_T direction);" tags="Flowchart" id="JtZdGqvp9lfBUKnp-gQf-31">
          <mxCell style="verticalAlign=middle;align=center;overflow=width;vsdxID=30;shape=stencil(tVLREoIgEPwaHnEQxsl3s/9gEpSJwDko7e+DsEkze2l627vdu5uFRaxyHe8FosR5sCcxqMZ3iO0Rpcp0ApQPCLEasUpaEC3Yi2lS3fOojOhsr3HDmObyMtsVcYqS29Qh5FEfklwrM5OXeUa/yjkcAwfr7TDpiyTfXvjkMR+Vw2A998qaBac5tAKHU1hq3i4oNwjRr9ofvayt/+Rk+yX/4iWA159KpXWKxJx/z0Bopfyw+g4=);spacingTop=-1;spacingBottom=-1;spacingLeft=-1;spacingRight=-1;points=[[0.5,1,0],[0.5,0,0],[0,0.5,0],[1,0.5,0]];labelBackgroundColor=none;rounded=1;html=1;whiteSpace=wrap;fontFamily=Calibri;fillColor=#dae8fc;strokeColor=#6c8ebf;" vertex="1" parent="1">
            <mxGeometry x="-836.75" y="-923" width="123" height="38" as="geometry" />
          </mxCell>
        </UserObject>
        <mxCell id="JtZdGqvp9lfBUKnp-gQf-32" style="edgeStyle=none;curved=1;rounded=0;orthogonalLoop=1;jettySize=auto;html=1;fontSize=12;startSize=8;endSize=8;exitX=0.5;exitY=1;exitDx=0;exitDy=0;exitPerimeter=0;entryX=0.5;entryY=0;entryDx=0;entryDy=0;entryPerimeter=0;" edge="1" parent="1" source="JtZdGqvp9lfBUKnp-gQf-31" target="JtZdGqvp9lfBUKnp-gQf-16">
          <mxGeometry relative="1" as="geometry">
            <mxPoint x="-776.76" y="-884" as="sourcePoint" />
            <mxPoint x="-775.6" y="-839" as="targetPoint" />
          </mxGeometry>
        </mxCell>
        <UserObject label="&lt;div style=&quot;font-size: 1px&quot;&gt;&lt;font style=&quot;font-size: 11.29px; direction: ltr; letter-spacing: 0px; line-height: 120%; opacity: 1;&quot;&gt;Return&amp;nbsp;&lt;i&gt;STD_TYPES_NOK&lt;/i&gt;&lt;br&gt;&lt;/font&gt;&lt;/div&gt;" Function="EN_DIO_Error_T DIO_init(uint8_t pinNumber, EN_DIO_PORT_T portNumber, EN_DIO_DIRECTION_T direction);" tags="Flowchart" id="JtZdGqvp9lfBUKnp-gQf-35">
          <mxCell style="verticalAlign=middle;align=center;overflow=width;vsdxID=30;shape=stencil(tVLREoIgEPwaHnEQxsl3s/9gEpSJwDko7e+DsEkze2l627vdu5uFRaxyHe8FosR5sCcxqMZ3iO0Rpcp0ApQPCLEasUpaEC3Yi2lS3fOojOhsr3HDmObyMtsVcYqS29Qh5FEfklwrM5OXeUa/yjkcAwfr7TDpiyTfXvjkMR+Vw2A998qaBac5tAKHU1hq3i4oNwjRr9ofvayt/+Rk+yX/4iWA159KpXWKxJx/z0Bopfyw+g4=);spacingTop=-1;spacingBottom=-1;spacingLeft=-1;spacingRight=-1;points=[[0.5,1,0],[0.5,0,0],[0,0.5,0],[1,0.5,0]];labelBackgroundColor=none;rounded=1;html=1;whiteSpace=wrap;fontFamily=Calibri;fillColor=#f8cecc;strokeColor=#b85450;" vertex="1" parent="1">
            <mxGeometry x="-641" y="-584.5" width="123" height="38" as="geometry" />
          </mxCell>
        </UserObject>
        <mxCell id="JtZdGqvp9lfBUKnp-gQf-38" style="edgeStyle=orthogonalEdgeStyle;rounded=1;orthogonalLoop=1;jettySize=auto;html=1;fontSize=12;startSize=8;endSize=8;fontFamily=Calibri;entryX=0.5;entryY=0;entryDx=0;entryDy=0;entryPerimeter=0;exitX=1;exitY=0.5;exitDx=0;exitDy=0;exitPerimeter=0;" edge="1" parent="1" source="JtZdGqvp9lfBUKnp-gQf-16" target="JtZdGqvp9lfBUKnp-gQf-35">
          <mxGeometry relative="1" as="geometry">
            <mxPoint x="-603" y="-754" as="sourcePoint" />
            <mxPoint x="-869" y="-1326" as="targetPoint" />
          </mxGeometry>
        </mxCell>
        <mxCell id="JtZdGqvp9lfBUKnp-gQf-45" value="&lt;font style=&quot;font-size: 11px;&quot;&gt;False&lt;/font&gt;" style="text;html=1;align=center;verticalAlign=middle;resizable=0;points=[];autosize=1;strokeColor=none;fillColor=none;fontSize=16;" vertex="1" parent="1">
          <mxGeometry x="-693" y="-828" width="45" height="31" as="geometry" />
        </mxCell>
        <mxCell id="JtZdGqvp9lfBUKnp-gQf-46" value="&lt;font style=&quot;font-size: 11px;&quot;&gt;False&lt;/font&gt;" style="text;html=1;align=center;verticalAlign=middle;resizable=0;points=[];autosize=1;strokeColor=none;fillColor=none;fontSize=16;" vertex="1" parent="1">
          <mxGeometry x="-690" y="-705" width="45" height="31" as="geometry" />
        </mxCell>
        <mxCell id="JtZdGqvp9lfBUKnp-gQf-47" value="DIO_u8SetPinValue" style="text;whiteSpace=wrap;html=1;fontSize=16;" vertex="1" parent="1">
          <mxGeometry x="-343" y="-1000" width="193" height="41" as="geometry" />
        </mxCell>
        <mxCell id="JtZdGqvp9lfBUKnp-gQf-48" style="edgeStyle=none;curved=1;rounded=0;orthogonalLoop=1;jettySize=auto;html=1;fontSize=12;startSize=8;endSize=8;" edge="1" parent="1" source="JtZdGqvp9lfBUKnp-gQf-49" target="JtZdGqvp9lfBUKnp-gQf-51">
          <mxGeometry relative="1" as="geometry" />
        </mxCell>
        <UserObject label="" Function="EN_DIO_Error_T DIO_init(uint8_t pinNumber, EN_DIO_PORT_T portNumber, EN_DIO_DIRECTION_T direction);" tags="Flowchart" id="JtZdGqvp9lfBUKnp-gQf-49">
          <mxCell style="vsdxID=219;fillColor=#fff2cc;shape=stencil(UzV2Ls5ILEhVNTIoLinKz04tz0wpyVA1dlE1MsrMy0gtyiwBslSNXVWNndPyi1LTi/JL81Ig/IJEkEoQKze/DGRCBUSfAUiHkUElhGcK4bpBVOZk5iGpNEVVikeloQHZpsK0YlWLz1QgA+HFtMycHEgIIcujBwlQCBKcxq4A);strokeColor=#d6b656;spacingTop=-1;spacingBottom=-1;spacingLeft=-1;spacingRight=-1;points=[[0,0.5,0],[1,0.5,0],[0.5,0,0],[0.5,1,0]];labelBackgroundColor=none;rounded=1;html=1;whiteSpace=wrap;fontFamily=Calibri;" vertex="1" parent="1">
            <mxGeometry x="-326.76" y="-839" width="101" height="76" as="geometry" />
          </mxCell>
        </UserObject>
        <mxCell id="JtZdGqvp9lfBUKnp-gQf-50" value="&lt;div style=&quot;font-size: 11.29px;&quot;&gt;&lt;i&gt;Port&lt;/i&gt; value is from &lt;i&gt;A&lt;/i&gt; to &lt;i&gt;D&lt;/i&gt;&lt;/div&gt;" style="text;vsdxID=219;fillColor=none;gradientColor=none;strokeColor=none;spacingTop=-1;spacingBottom=-1;spacingLeft=-1;spacingRight=-1;points=[[0,0.5,0],[1,0.5,0],[0.5,0,0],[0.5,1,0]];labelBackgroundColor=none;rounded=1;html=1;whiteSpace=wrap;verticalAlign=middle;align=center;overflow=width;;html=1;fontColor=#000000;fontFamily=Calibri;" vertex="1" parent="JtZdGqvp9lfBUKnp-gQf-49">
          <mxGeometry x="8.17" y="12.5" width="84.67" height="57.15" as="geometry" />
        </mxCell>
        <UserObject label="" Function="EN_DIO_Error_T DIO_init(uint8_t pinNumber, EN_DIO_PORT_T portNumber, EN_DIO_DIRECTION_T direction);" tags="Flowchart" id="JtZdGqvp9lfBUKnp-gQf-51">
          <mxCell style="vsdxID=219;fillColor=#fff2cc;shape=stencil(UzV2Ls5ILEhVNTIoLinKz04tz0wpyVA1dlE1MsrMy0gtyiwBslSNXVWNndPyi1LTi/JL81Ig/IJEkEoQKze/DGRCBUSfAUiHkUElhGcK4bpBVOZk5iGpNEVVikeloQHZpsK0YlWLz1QgA+HFtMycHEgIIcujBwlQCBKcxq4A);strokeColor=#d6b656;spacingTop=-1;spacingBottom=-1;spacingLeft=-1;spacingRight=-1;points=[[0,0.5,0],[1,0.5,0],[0.5,0,0],[0.5,1,0]];labelBackgroundColor=none;rounded=1;html=1;whiteSpace=wrap;fontFamily=Calibri;" vertex="1" parent="1">
            <mxGeometry x="-326.75" y="-716" width="101" height="76" as="geometry" />
          </mxCell>
        </UserObject>
        <mxCell id="JtZdGqvp9lfBUKnp-gQf-52" style="edgeStyle=none;curved=1;rounded=0;orthogonalLoop=1;jettySize=auto;html=1;fontSize=12;startSize=8;endSize=8;exitX=1;exitY=0.5;exitDx=0;exitDy=0;exitPerimeter=0;" edge="1" parent="JtZdGqvp9lfBUKnp-gQf-51" source="JtZdGqvp9lfBUKnp-gQf-51">
          <mxGeometry relative="1" as="geometry">
            <mxPoint x="244.75" y="38" as="targetPoint" />
          </mxGeometry>
        </mxCell>
        <mxCell id="JtZdGqvp9lfBUKnp-gQf-53" value="&lt;div style=&quot;font-size: 11.29px;&quot;&gt;&lt;i&gt;Pin&lt;/i&gt; value is from&amp;nbsp;&lt;/div&gt;&lt;div style=&quot;font-size: 11.29px;&quot;&gt;&lt;i&gt;0&lt;/i&gt; to &lt;i&gt;7&lt;/i&gt;&lt;/div&gt;" style="text;vsdxID=219;fillColor=none;gradientColor=none;strokeColor=none;spacingTop=-1;spacingBottom=-1;spacingLeft=-1;spacingRight=-1;points=[[0,0.5,0],[1,0.5,0],[0.5,0,0],[0.5,1,0]];labelBackgroundColor=none;rounded=1;html=1;whiteSpace=wrap;verticalAlign=middle;align=center;overflow=width;;html=1;fontColor=#000000;fontFamily=Calibri;" vertex="1" parent="JtZdGqvp9lfBUKnp-gQf-51">
          <mxGeometry x="8.16" y="14" width="84.67" height="57.15" as="geometry" />
        </mxCell>
        <mxCell id="JtZdGqvp9lfBUKnp-gQf-54" style="edgeStyle=none;curved=1;rounded=0;orthogonalLoop=1;jettySize=auto;html=1;entryX=0.5;entryY=0;entryDx=0;entryDy=0;entryPerimeter=0;fontSize=12;startSize=8;endSize=8;" edge="1" parent="1" source="JtZdGqvp9lfBUKnp-gQf-55" target="JtZdGqvp9lfBUKnp-gQf-56">
          <mxGeometry relative="1" as="geometry" />
        </mxCell>
        <UserObject label="&lt;div style=&quot;&quot;&gt;&lt;span style=&quot;font-size: 11.29px;&quot;&gt;Set the required &lt;i&gt;Pin Value&amp;nbsp;&lt;/i&gt;&lt;/span&gt;&lt;/div&gt;&lt;div style=&quot;&quot;&gt;&lt;span style=&quot;font-size: 11.29px;&quot;&gt;&amp;nbsp;in the required &lt;i&gt;PORTx&lt;/i&gt; register&lt;/span&gt;&lt;/div&gt;" Function="EN_DIO_Error_T DIO_toggle(uint8_t pinNumber, EN_DIO_PORT_T portNumber);  " tags="Flowchart" id="JtZdGqvp9lfBUKnp-gQf-55">
          <mxCell style="verticalAlign=middle;align=center;overflow=width;vsdxID=274;fillColor=#d5e8d4;shape=stencil(nZBLDoAgDERP0z3SIyjew0SURgSD+Lu9kMZoXLhwN9O+tukAlrNpJg1SzDH4QW/URgNYgZTkjA4UkwJUgGXng+6DX1zLfmoymdXo17xh5zmRJ6Q42BWCfc2oJfdAr+Yv+AP9Cb7OJ3H/2JG1HNGz/84klThPVCc=);strokeColor=#82b366;spacingTop=-1;spacingBottom=-1;spacingLeft=-1;spacingRight=-1;points=[[0,0.5,0],[1,0.5,0],[0.5,1,0],[0.5,0,0]];labelBackgroundColor=none;rounded=1;html=1;whiteSpace=wrap;fontFamily=Calibri;" vertex="1" parent="1">
            <mxGeometry x="-343" y="-591" width="133.5" height="51" as="geometry" />
          </mxCell>
        </UserObject>
        <UserObject label="&lt;div style=&quot;font-size: 1px&quot;&gt;&lt;font style=&quot;font-size: 11.29px; direction: ltr; letter-spacing: 0px; line-height: 120%; opacity: 1;&quot;&gt;Return&amp;nbsp;&lt;i&gt;STD_TYPES_OK&lt;/i&gt;&lt;br&gt;&lt;/font&gt;&lt;/div&gt;" Function="EN_DIO_Error_T DIO_init(uint8_t pinNumber, EN_DIO_PORT_T portNumber, EN_DIO_DIRECTION_T direction);" tags="Flowchart" id="JtZdGqvp9lfBUKnp-gQf-56">
          <mxCell style="verticalAlign=middle;align=center;overflow=width;vsdxID=30;shape=stencil(tVLREoIgEPwaHnEQxsl3s/9gEpSJwDko7e+DsEkze2l627vdu5uFRaxyHe8FosR5sCcxqMZ3iO0Rpcp0ApQPCLEasUpaEC3Yi2lS3fOojOhsr3HDmObyMtsVcYqS29Qh5FEfklwrM5OXeUa/yjkcAwfr7TDpiyTfXvjkMR+Vw2A998qaBac5tAKHU1hq3i4oNwjRr9ofvayt/+Rk+yX/4iWA159KpXWKxJx/z0Bopfyw+g4=);spacingTop=-1;spacingBottom=-1;spacingLeft=-1;spacingRight=-1;points=[[0.5,1,0],[0.5,0,0],[0,0.5,0],[1,0.5,0]];labelBackgroundColor=none;rounded=1;html=1;whiteSpace=wrap;fontFamily=Calibri;fillColor=#d5e8d4;strokeColor=#82b366;" vertex="1" parent="1">
            <mxGeometry x="-337.75" y="-486" width="123" height="38" as="geometry" />
          </mxCell>
        </UserObject>
        <mxCell id="JtZdGqvp9lfBUKnp-gQf-57" style="edgeStyle=none;curved=1;rounded=0;orthogonalLoop=1;jettySize=auto;html=1;fontSize=12;startSize=8;endSize=8;exitX=0.5;exitY=1;exitDx=0;exitDy=0;exitPerimeter=0;entryX=0.5;entryY=0;entryDx=0;entryDy=0;entryPerimeter=0;" edge="1" parent="1" source="JtZdGqvp9lfBUKnp-gQf-51" target="JtZdGqvp9lfBUKnp-gQf-55">
          <mxGeometry relative="1" as="geometry">
            <mxPoint x="-274.76" y="-635" as="sourcePoint" />
            <mxPoint x="-276.59000000000003" y="-593" as="targetPoint" />
          </mxGeometry>
        </mxCell>
        <UserObject label="&lt;div style=&quot;font-size: 1px&quot;&gt;&lt;font style=&quot;font-size: 11.29px; direction: ltr; letter-spacing: 0px; line-height: 120%; opacity: 1;&quot;&gt;Start&lt;/font&gt;&lt;/div&gt;" Function="EN_DIO_Error_T DIO_init(uint8_t pinNumber, EN_DIO_PORT_T portNumber, EN_DIO_DIRECTION_T direction);" tags="Flowchart" id="JtZdGqvp9lfBUKnp-gQf-58">
          <mxCell style="verticalAlign=middle;align=center;overflow=width;vsdxID=30;shape=stencil(tVLREoIgEPwaHnEQxsl3s/9gEpSJwDko7e+DsEkze2l627vdu5uFRaxyHe8FosR5sCcxqMZ3iO0Rpcp0ApQPCLEasUpaEC3Yi2lS3fOojOhsr3HDmObyMtsVcYqS29Qh5FEfklwrM5OXeUa/yjkcAwfr7TDpiyTfXvjkMR+Vw2A998qaBac5tAKHU1hq3i4oNwjRr9ofvayt/+Rk+yX/4iWA159KpXWKxJx/z0Bopfyw+g4=);spacingTop=-1;spacingBottom=-1;spacingLeft=-1;spacingRight=-1;points=[[0.5,1,0],[0.5,0,0],[0,0.5,0],[1,0.5,0]];labelBackgroundColor=none;rounded=1;html=1;whiteSpace=wrap;fontFamily=Calibri;fillColor=#dae8fc;strokeColor=#6c8ebf;" vertex="1" parent="1">
            <mxGeometry x="-337.75" y="-923" width="123" height="38" as="geometry" />
          </mxCell>
        </UserObject>
        <mxCell id="JtZdGqvp9lfBUKnp-gQf-59" style="edgeStyle=none;curved=1;rounded=0;orthogonalLoop=1;jettySize=auto;html=1;fontSize=12;startSize=8;endSize=8;exitX=0.5;exitY=1;exitDx=0;exitDy=0;exitPerimeter=0;entryX=0.5;entryY=0;entryDx=0;entryDy=0;entryPerimeter=0;" edge="1" parent="1" source="JtZdGqvp9lfBUKnp-gQf-58" target="JtZdGqvp9lfBUKnp-gQf-49">
          <mxGeometry relative="1" as="geometry">
            <mxPoint x="-277.76" y="-884" as="sourcePoint" />
            <mxPoint x="-276.6" y="-839" as="targetPoint" />
          </mxGeometry>
        </mxCell>
        <UserObject label="&lt;div style=&quot;font-size: 1px&quot;&gt;&lt;font style=&quot;font-size: 11.29px; direction: ltr; letter-spacing: 0px; line-height: 120%; opacity: 1;&quot;&gt;Return&amp;nbsp;&lt;i&gt;STD_TYPES_NOK&lt;/i&gt;&lt;br&gt;&lt;/font&gt;&lt;/div&gt;" Function="EN_DIO_Error_T DIO_init(uint8_t pinNumber, EN_DIO_PORT_T portNumber, EN_DIO_DIRECTION_T direction);" tags="Flowchart" id="JtZdGqvp9lfBUKnp-gQf-60">
          <mxCell style="verticalAlign=middle;align=center;overflow=width;vsdxID=30;shape=stencil(tVLREoIgEPwaHnEQxsl3s/9gEpSJwDko7e+DsEkze2l627vdu5uFRaxyHe8FosR5sCcxqMZ3iO0Rpcp0ApQPCLEasUpaEC3Yi2lS3fOojOhsr3HDmObyMtsVcYqS29Qh5FEfklwrM5OXeUa/yjkcAwfr7TDpiyTfXvjkMR+Vw2A998qaBac5tAKHU1hq3i4oNwjRr9ofvayt/+Rk+yX/4iWA159KpXWKxJx/z0Bopfyw+g4=);spacingTop=-1;spacingBottom=-1;spacingLeft=-1;spacingRight=-1;points=[[0.5,1,0],[0.5,0,0],[0,0.5,0],[1,0.5,0]];labelBackgroundColor=none;rounded=1;html=1;whiteSpace=wrap;fontFamily=Calibri;fillColor=#f8cecc;strokeColor=#b85450;" vertex="1" parent="1">
            <mxGeometry x="-142" y="-584.5" width="123" height="38" as="geometry" />
          </mxCell>
        </UserObject>
        <mxCell id="JtZdGqvp9lfBUKnp-gQf-61" style="edgeStyle=orthogonalEdgeStyle;rounded=1;orthogonalLoop=1;jettySize=auto;html=1;fontSize=12;startSize=8;endSize=8;fontFamily=Calibri;entryX=0.5;entryY=0;entryDx=0;entryDy=0;entryPerimeter=0;exitX=1;exitY=0.5;exitDx=0;exitDy=0;exitPerimeter=0;" edge="1" parent="1" source="JtZdGqvp9lfBUKnp-gQf-49" target="JtZdGqvp9lfBUKnp-gQf-60">
          <mxGeometry relative="1" as="geometry">
            <mxPoint x="-104" y="-754" as="sourcePoint" />
            <mxPoint x="-370" y="-1326" as="targetPoint" />
          </mxGeometry>
        </mxCell>
        <mxCell id="JtZdGqvp9lfBUKnp-gQf-62" value="&lt;font style=&quot;font-size: 11px;&quot;&gt;False&lt;/font&gt;" style="text;html=1;align=center;verticalAlign=middle;resizable=0;points=[];autosize=1;strokeColor=none;fillColor=none;fontSize=16;" vertex="1" parent="1">
          <mxGeometry x="-194" y="-828" width="45" height="31" as="geometry" />
        </mxCell>
        <mxCell id="JtZdGqvp9lfBUKnp-gQf-63" value="&lt;font style=&quot;font-size: 11px;&quot;&gt;False&lt;/font&gt;" style="text;html=1;align=center;verticalAlign=middle;resizable=0;points=[];autosize=1;strokeColor=none;fillColor=none;fontSize=16;" vertex="1" parent="1">
          <mxGeometry x="-191" y="-705" width="45" height="31" as="geometry" />
        </mxCell>
        <mxCell id="JtZdGqvp9lfBUKnp-gQf-64" value="DIO_u8GetPinValue" style="text;whiteSpace=wrap;html=1;fontSize=16;" vertex="1" parent="1">
          <mxGeometry x="104" y="-1007" width="193" height="41" as="geometry" />
        </mxCell>
        <mxCell id="JtZdGqvp9lfBUKnp-gQf-65" style="edgeStyle=none;curved=1;rounded=0;orthogonalLoop=1;jettySize=auto;html=1;fontSize=12;startSize=8;endSize=8;" edge="1" parent="1" source="JtZdGqvp9lfBUKnp-gQf-66" target="JtZdGqvp9lfBUKnp-gQf-68">
          <mxGeometry relative="1" as="geometry" />
        </mxCell>
        <UserObject label="" Function="EN_DIO_Error_T DIO_init(uint8_t pinNumber, EN_DIO_PORT_T portNumber, EN_DIO_DIRECTION_T direction);" tags="Flowchart" id="JtZdGqvp9lfBUKnp-gQf-66">
          <mxCell style="vsdxID=219;fillColor=#fff2cc;shape=stencil(UzV2Ls5ILEhVNTIoLinKz04tz0wpyVA1dlE1MsrMy0gtyiwBslSNXVWNndPyi1LTi/JL81Ig/IJEkEoQKze/DGRCBUSfAUiHkUElhGcK4bpBVOZk5iGpNEVVikeloQHZpsK0YlWLz1QgA+HFtMycHEgIIcujBwlQCBKcxq4A);strokeColor=#d6b656;spacingTop=-1;spacingBottom=-1;spacingLeft=-1;spacingRight=-1;points=[[0,0.5,0],[1,0.5,0],[0.5,0,0],[0.5,1,0]];labelBackgroundColor=none;rounded=1;html=1;whiteSpace=wrap;fontFamily=Calibri;" vertex="1" parent="1">
            <mxGeometry x="125.24000000000001" y="-839" width="101" height="76" as="geometry" />
          </mxCell>
        </UserObject>
        <mxCell id="JtZdGqvp9lfBUKnp-gQf-67" value="&lt;div style=&quot;font-size: 11.29px;&quot;&gt;&lt;i&gt;Port&lt;/i&gt; value is from &lt;i&gt;A&lt;/i&gt; to &lt;i&gt;D&lt;/i&gt;&lt;/div&gt;" style="text;vsdxID=219;fillColor=none;gradientColor=none;strokeColor=none;spacingTop=-1;spacingBottom=-1;spacingLeft=-1;spacingRight=-1;points=[[0,0.5,0],[1,0.5,0],[0.5,0,0],[0.5,1,0]];labelBackgroundColor=none;rounded=1;html=1;whiteSpace=wrap;verticalAlign=middle;align=center;overflow=width;;html=1;fontColor=#000000;fontFamily=Calibri;" vertex="1" parent="JtZdGqvp9lfBUKnp-gQf-66">
          <mxGeometry x="8.17" y="12.5" width="84.67" height="57.15" as="geometry" />
        </mxCell>
        <UserObject label="" Function="EN_DIO_Error_T DIO_init(uint8_t pinNumber, EN_DIO_PORT_T portNumber, EN_DIO_DIRECTION_T direction);" tags="Flowchart" id="JtZdGqvp9lfBUKnp-gQf-68">
          <mxCell style="vsdxID=219;fillColor=#fff2cc;shape=stencil(UzV2Ls5ILEhVNTIoLinKz04tz0wpyVA1dlE1MsrMy0gtyiwBslSNXVWNndPyi1LTi/JL81Ig/IJEkEoQKze/DGRCBUSfAUiHkUElhGcK4bpBVOZk5iGpNEVVikeloQHZpsK0YlWLz1QgA+HFtMycHEgIIcujBwlQCBKcxq4A);strokeColor=#d6b656;spacingTop=-1;spacingBottom=-1;spacingLeft=-1;spacingRight=-1;points=[[0,0.5,0],[1,0.5,0],[0.5,0,0],[0.5,1,0]];labelBackgroundColor=none;rounded=1;html=1;whiteSpace=wrap;fontFamily=Calibri;" vertex="1" parent="1">
            <mxGeometry x="125.25" y="-716" width="101" height="76" as="geometry" />
          </mxCell>
        </UserObject>
        <mxCell id="JtZdGqvp9lfBUKnp-gQf-69" style="edgeStyle=none;curved=1;rounded=0;orthogonalLoop=1;jettySize=auto;html=1;fontSize=12;startSize=8;endSize=8;exitX=1;exitY=0.5;exitDx=0;exitDy=0;exitPerimeter=0;" edge="1" parent="JtZdGqvp9lfBUKnp-gQf-68" source="JtZdGqvp9lfBUKnp-gQf-68">
          <mxGeometry relative="1" as="geometry">
            <mxPoint x="244.75" y="38" as="targetPoint" />
          </mxGeometry>
        </mxCell>
        <mxCell id="JtZdGqvp9lfBUKnp-gQf-70" value="&lt;div style=&quot;font-size: 11.29px;&quot;&gt;&lt;i&gt;Pin&lt;/i&gt; value is from&amp;nbsp;&lt;/div&gt;&lt;div style=&quot;font-size: 11.29px;&quot;&gt;&lt;i&gt;0&lt;/i&gt; to &lt;i&gt;7&lt;/i&gt;&lt;/div&gt;" style="text;vsdxID=219;fillColor=none;gradientColor=none;strokeColor=none;spacingTop=-1;spacingBottom=-1;spacingLeft=-1;spacingRight=-1;points=[[0,0.5,0],[1,0.5,0],[0.5,0,0],[0.5,1,0]];labelBackgroundColor=none;rounded=1;html=1;whiteSpace=wrap;verticalAlign=middle;align=center;overflow=width;;html=1;fontColor=#000000;fontFamily=Calibri;" vertex="1" parent="JtZdGqvp9lfBUKnp-gQf-68">
          <mxGeometry x="8.16" y="14" width="84.67" height="57.15" as="geometry" />
        </mxCell>
        <mxCell id="JtZdGqvp9lfBUKnp-gQf-71" style="edgeStyle=none;curved=1;rounded=0;orthogonalLoop=1;jettySize=auto;html=1;entryX=0.5;entryY=0;entryDx=0;entryDy=0;entryPerimeter=0;fontSize=12;startSize=8;endSize=8;" edge="1" parent="1" source="JtZdGqvp9lfBUKnp-gQf-72" target="JtZdGqvp9lfBUKnp-gQf-73">
          <mxGeometry relative="1" as="geometry" />
        </mxCell>
        <UserObject label="&lt;div style=&quot;&quot;&gt;&lt;span style=&quot;font-size: 11.29px;&quot;&gt;Get the required &lt;i&gt;Pin Value&amp;nbsp;&lt;/i&gt;&lt;/span&gt;&lt;/div&gt;&lt;div style=&quot;&quot;&gt;&lt;span style=&quot;font-size: 11.29px;&quot;&gt;&amp;nbsp;from the required &lt;i&gt;PINx&lt;/i&gt; register&lt;/span&gt;&lt;/div&gt;" Function="EN_DIO_Error_T DIO_toggle(uint8_t pinNumber, EN_DIO_PORT_T portNumber);  " tags="Flowchart" id="JtZdGqvp9lfBUKnp-gQf-72">
          <mxCell style="verticalAlign=middle;align=center;overflow=width;vsdxID=274;fillColor=#d5e8d4;shape=stencil(nZBLDoAgDERP0z3SIyjew0SURgSD+Lu9kMZoXLhwN9O+tukAlrNpJg1SzDH4QW/URgNYgZTkjA4UkwJUgGXng+6DX1zLfmoymdXo17xh5zmRJ6Q42BWCfc2oJfdAr+Yv+AP9Cb7OJ3H/2JG1HNGz/84klThPVCc=);strokeColor=#82b366;spacingTop=-1;spacingBottom=-1;spacingLeft=-1;spacingRight=-1;points=[[0,0.5,0],[1,0.5,0],[0.5,1,0],[0.5,0,0]];labelBackgroundColor=none;rounded=1;html=1;whiteSpace=wrap;fontFamily=Calibri;" vertex="1" parent="1">
            <mxGeometry x="109" y="-591" width="133.5" height="51" as="geometry" />
          </mxCell>
        </UserObject>
        <UserObject label="&lt;div style=&quot;font-size: 1px&quot;&gt;&lt;font style=&quot;font-size: 11.29px; direction: ltr; letter-spacing: 0px; line-height: 120%; opacity: 1;&quot;&gt;Return&amp;nbsp;&lt;i&gt;STD_TYPES_OK&lt;/i&gt;&lt;br&gt;&lt;/font&gt;&lt;/div&gt;" Function="EN_DIO_Error_T DIO_init(uint8_t pinNumber, EN_DIO_PORT_T portNumber, EN_DIO_DIRECTION_T direction);" tags="Flowchart" id="JtZdGqvp9lfBUKnp-gQf-73">
          <mxCell style="verticalAlign=middle;align=center;overflow=width;vsdxID=30;shape=stencil(tVLREoIgEPwaHnEQxsl3s/9gEpSJwDko7e+DsEkze2l627vdu5uFRaxyHe8FosR5sCcxqMZ3iO0Rpcp0ApQPCLEasUpaEC3Yi2lS3fOojOhsr3HDmObyMtsVcYqS29Qh5FEfklwrM5OXeUa/yjkcAwfr7TDpiyTfXvjkMR+Vw2A998qaBac5tAKHU1hq3i4oNwjRr9ofvayt/+Rk+yX/4iWA159KpXWKxJx/z0Bopfyw+g4=);spacingTop=-1;spacingBottom=-1;spacingLeft=-1;spacingRight=-1;points=[[0.5,1,0],[0.5,0,0],[0,0.5,0],[1,0.5,0]];labelBackgroundColor=none;rounded=1;html=1;whiteSpace=wrap;fontFamily=Calibri;fillColor=#d5e8d4;strokeColor=#82b366;" vertex="1" parent="1">
            <mxGeometry x="114.25" y="-486" width="123" height="38" as="geometry" />
          </mxCell>
        </UserObject>
        <mxCell id="JtZdGqvp9lfBUKnp-gQf-74" style="edgeStyle=none;curved=1;rounded=0;orthogonalLoop=1;jettySize=auto;html=1;fontSize=12;startSize=8;endSize=8;exitX=0.5;exitY=1;exitDx=0;exitDy=0;exitPerimeter=0;entryX=0.5;entryY=0;entryDx=0;entryDy=0;entryPerimeter=0;" edge="1" parent="1" source="JtZdGqvp9lfBUKnp-gQf-68" target="JtZdGqvp9lfBUKnp-gQf-72">
          <mxGeometry relative="1" as="geometry">
            <mxPoint x="177.24" y="-635" as="sourcePoint" />
            <mxPoint x="175.40999999999997" y="-593" as="targetPoint" />
          </mxGeometry>
        </mxCell>
        <UserObject label="&lt;div style=&quot;font-size: 1px&quot;&gt;&lt;font style=&quot;font-size: 11.29px; direction: ltr; letter-spacing: 0px; line-height: 120%; opacity: 1;&quot;&gt;Start&lt;/font&gt;&lt;/div&gt;" Function="EN_DIO_Error_T DIO_init(uint8_t pinNumber, EN_DIO_PORT_T portNumber, EN_DIO_DIRECTION_T direction);" tags="Flowchart" id="JtZdGqvp9lfBUKnp-gQf-75">
          <mxCell style="verticalAlign=middle;align=center;overflow=width;vsdxID=30;shape=stencil(tVLREoIgEPwaHnEQxsl3s/9gEpSJwDko7e+DsEkze2l627vdu5uFRaxyHe8FosR5sCcxqMZ3iO0Rpcp0ApQPCLEasUpaEC3Yi2lS3fOojOhsr3HDmObyMtsVcYqS29Qh5FEfklwrM5OXeUa/yjkcAwfr7TDpiyTfXvjkMR+Vw2A998qaBac5tAKHU1hq3i4oNwjRr9ofvayt/+Rk+yX/4iWA159KpXWKxJx/z0Bopfyw+g4=);spacingTop=-1;spacingBottom=-1;spacingLeft=-1;spacingRight=-1;points=[[0.5,1,0],[0.5,0,0],[0,0.5,0],[1,0.5,0]];labelBackgroundColor=none;rounded=1;html=1;whiteSpace=wrap;fontFamily=Calibri;fillColor=#dae8fc;strokeColor=#6c8ebf;" vertex="1" parent="1">
            <mxGeometry x="114.25" y="-923" width="123" height="38" as="geometry" />
          </mxCell>
        </UserObject>
        <mxCell id="JtZdGqvp9lfBUKnp-gQf-76" style="edgeStyle=none;curved=1;rounded=0;orthogonalLoop=1;jettySize=auto;html=1;fontSize=12;startSize=8;endSize=8;entryX=0.5;entryY=0;entryDx=0;entryDy=0;entryPerimeter=0;" edge="1" parent="1" source="JtZdGqvp9lfBUKnp-gQf-75" target="JtZdGqvp9lfBUKnp-gQf-66">
          <mxGeometry relative="1" as="geometry">
            <mxPoint x="174.24" y="-884" as="sourcePoint" />
            <mxPoint x="175.39999999999998" y="-839" as="targetPoint" />
          </mxGeometry>
        </mxCell>
        <UserObject label="&lt;div style=&quot;font-size: 1px&quot;&gt;&lt;font style=&quot;font-size: 11.29px; direction: ltr; letter-spacing: 0px; line-height: 120%; opacity: 1;&quot;&gt;Return&amp;nbsp;&lt;i&gt;STD_TYPES_NOK&lt;/i&gt;&lt;br&gt;&lt;/font&gt;&lt;/div&gt;" Function="EN_DIO_Error_T DIO_init(uint8_t pinNumber, EN_DIO_PORT_T portNumber, EN_DIO_DIRECTION_T direction);" tags="Flowchart" id="JtZdGqvp9lfBUKnp-gQf-77">
          <mxCell style="verticalAlign=middle;align=center;overflow=width;vsdxID=30;shape=stencil(tVLREoIgEPwaHnEQxsl3s/9gEpSJwDko7e+DsEkze2l627vdu5uFRaxyHe8FosR5sCcxqMZ3iO0Rpcp0ApQPCLEasUpaEC3Yi2lS3fOojOhsr3HDmObyMtsVcYqS29Qh5FEfklwrM5OXeUa/yjkcAwfr7TDpiyTfXvjkMR+Vw2A998qaBac5tAKHU1hq3i4oNwjRr9ofvayt/+Rk+yX/4iWA159KpXWKxJx/z0Bopfyw+g4=);spacingTop=-1;spacingBottom=-1;spacingLeft=-1;spacingRight=-1;points=[[0.5,1,0],[0.5,0,0],[0,0.5,0],[1,0.5,0]];labelBackgroundColor=none;rounded=1;html=1;whiteSpace=wrap;fontFamily=Calibri;fillColor=#f8cecc;strokeColor=#b85450;" vertex="1" parent="1">
            <mxGeometry x="310" y="-584.5" width="123" height="38" as="geometry" />
          </mxCell>
        </UserObject>
        <mxCell id="JtZdGqvp9lfBUKnp-gQf-78" style="edgeStyle=orthogonalEdgeStyle;rounded=1;orthogonalLoop=1;jettySize=auto;html=1;fontSize=12;startSize=8;endSize=8;fontFamily=Calibri;entryX=0.5;entryY=0;entryDx=0;entryDy=0;entryPerimeter=0;exitX=1;exitY=0.5;exitDx=0;exitDy=0;exitPerimeter=0;" edge="1" parent="1" source="JtZdGqvp9lfBUKnp-gQf-66" target="JtZdGqvp9lfBUKnp-gQf-77">
          <mxGeometry relative="1" as="geometry">
            <mxPoint x="348" y="-754" as="sourcePoint" />
            <mxPoint x="82" y="-1326" as="targetPoint" />
          </mxGeometry>
        </mxCell>
        <mxCell id="JtZdGqvp9lfBUKnp-gQf-79" value="&lt;font style=&quot;font-size: 11px;&quot;&gt;False&lt;/font&gt;" style="text;html=1;align=center;verticalAlign=middle;resizable=0;points=[];autosize=1;strokeColor=none;fillColor=none;fontSize=16;" vertex="1" parent="1">
          <mxGeometry x="258" y="-828" width="45" height="31" as="geometry" />
        </mxCell>
        <mxCell id="JtZdGqvp9lfBUKnp-gQf-80" value="&lt;font style=&quot;font-size: 11px;&quot;&gt;False&lt;/font&gt;" style="text;html=1;align=center;verticalAlign=middle;resizable=0;points=[];autosize=1;strokeColor=none;fillColor=none;fontSize=16;" vertex="1" parent="1">
          <mxGeometry x="261" y="-705" width="45" height="31" as="geometry" />
        </mxCell>
        <mxCell id="JtZdGqvp9lfBUKnp-gQf-82" value="DIO_u8TogglePinValue" style="text;whiteSpace=wrap;html=1;fontSize=16;" vertex="1" parent="1">
          <mxGeometry x="599" y="-1000" width="193" height="41" as="geometry" />
        </mxCell>
        <mxCell id="JtZdGqvp9lfBUKnp-gQf-83" style="edgeStyle=none;curved=1;rounded=0;orthogonalLoop=1;jettySize=auto;html=1;fontSize=12;startSize=8;endSize=8;" edge="1" parent="1" source="JtZdGqvp9lfBUKnp-gQf-84" target="JtZdGqvp9lfBUKnp-gQf-86">
          <mxGeometry relative="1" as="geometry" />
        </mxCell>
        <UserObject label="" Function="EN_DIO_Error_T DIO_init(uint8_t pinNumber, EN_DIO_PORT_T portNumber, EN_DIO_DIRECTION_T direction);" tags="Flowchart" id="JtZdGqvp9lfBUKnp-gQf-84">
          <mxCell style="vsdxID=219;fillColor=#fff2cc;shape=stencil(UzV2Ls5ILEhVNTIoLinKz04tz0wpyVA1dlE1MsrMy0gtyiwBslSNXVWNndPyi1LTi/JL81Ig/IJEkEoQKze/DGRCBUSfAUiHkUElhGcK4bpBVOZk5iGpNEVVikeloQHZpsK0YlWLz1QgA+HFtMycHEgIIcujBwlQCBKcxq4A);strokeColor=#d6b656;spacingTop=-1;spacingBottom=-1;spacingLeft=-1;spacingRight=-1;points=[[0,0.5,0],[1,0.5,0],[0.5,0,0],[0.5,1,0]];labelBackgroundColor=none;rounded=1;html=1;whiteSpace=wrap;fontFamily=Calibri;" vertex="1" parent="1">
            <mxGeometry x="620.24" y="-839" width="101" height="76" as="geometry" />
          </mxCell>
        </UserObject>
        <mxCell id="JtZdGqvp9lfBUKnp-gQf-85" value="&lt;div style=&quot;font-size: 11.29px;&quot;&gt;&lt;i&gt;Port&lt;/i&gt; value is from &lt;i&gt;A&lt;/i&gt; to &lt;i&gt;D&lt;/i&gt;&lt;/div&gt;" style="text;vsdxID=219;fillColor=none;gradientColor=none;strokeColor=none;spacingTop=-1;spacingBottom=-1;spacingLeft=-1;spacingRight=-1;points=[[0,0.5,0],[1,0.5,0],[0.5,0,0],[0.5,1,0]];labelBackgroundColor=none;rounded=1;html=1;whiteSpace=wrap;verticalAlign=middle;align=center;overflow=width;;html=1;fontColor=#000000;fontFamily=Calibri;" vertex="1" parent="JtZdGqvp9lfBUKnp-gQf-84">
          <mxGeometry x="8.17" y="12.5" width="84.67" height="57.15" as="geometry" />
        </mxCell>
        <UserObject label="" Function="EN_DIO_Error_T DIO_init(uint8_t pinNumber, EN_DIO_PORT_T portNumber, EN_DIO_DIRECTION_T direction);" tags="Flowchart" id="JtZdGqvp9lfBUKnp-gQf-86">
          <mxCell style="vsdxID=219;fillColor=#fff2cc;shape=stencil(UzV2Ls5ILEhVNTIoLinKz04tz0wpyVA1dlE1MsrMy0gtyiwBslSNXVWNndPyi1LTi/JL81Ig/IJEkEoQKze/DGRCBUSfAUiHkUElhGcK4bpBVOZk5iGpNEVVikeloQHZpsK0YlWLz1QgA+HFtMycHEgIIcujBwlQCBKcxq4A);strokeColor=#d6b656;spacingTop=-1;spacingBottom=-1;spacingLeft=-1;spacingRight=-1;points=[[0,0.5,0],[1,0.5,0],[0.5,0,0],[0.5,1,0]];labelBackgroundColor=none;rounded=1;html=1;whiteSpace=wrap;fontFamily=Calibri;" vertex="1" parent="1">
            <mxGeometry x="620.25" y="-716" width="101" height="76" as="geometry" />
          </mxCell>
        </UserObject>
        <mxCell id="JtZdGqvp9lfBUKnp-gQf-87" style="edgeStyle=none;curved=1;rounded=0;orthogonalLoop=1;jettySize=auto;html=1;fontSize=12;startSize=8;endSize=8;exitX=1;exitY=0.5;exitDx=0;exitDy=0;exitPerimeter=0;" edge="1" parent="JtZdGqvp9lfBUKnp-gQf-86" source="JtZdGqvp9lfBUKnp-gQf-86">
          <mxGeometry relative="1" as="geometry">
            <mxPoint x="244.75" y="38" as="targetPoint" />
          </mxGeometry>
        </mxCell>
        <mxCell id="JtZdGqvp9lfBUKnp-gQf-88" value="&lt;div style=&quot;font-size: 11.29px;&quot;&gt;&lt;i&gt;Pin&lt;/i&gt; value is from&amp;nbsp;&lt;/div&gt;&lt;div style=&quot;font-size: 11.29px;&quot;&gt;&lt;i&gt;0&lt;/i&gt; to &lt;i&gt;7&lt;/i&gt;&lt;/div&gt;" style="text;vsdxID=219;fillColor=none;gradientColor=none;strokeColor=none;spacingTop=-1;spacingBottom=-1;spacingLeft=-1;spacingRight=-1;points=[[0,0.5,0],[1,0.5,0],[0.5,0,0],[0.5,1,0]];labelBackgroundColor=none;rounded=1;html=1;whiteSpace=wrap;verticalAlign=middle;align=center;overflow=width;;html=1;fontColor=#000000;fontFamily=Calibri;" vertex="1" parent="JtZdGqvp9lfBUKnp-gQf-86">
          <mxGeometry x="8.16" y="14" width="84.67" height="57.15" as="geometry" />
        </mxCell>
        <mxCell id="JtZdGqvp9lfBUKnp-gQf-89" style="edgeStyle=none;curved=1;rounded=0;orthogonalLoop=1;jettySize=auto;html=1;entryX=0.5;entryY=0;entryDx=0;entryDy=0;entryPerimeter=0;fontSize=12;startSize=8;endSize=8;" edge="1" parent="1" source="JtZdGqvp9lfBUKnp-gQf-90" target="JtZdGqvp9lfBUKnp-gQf-91">
          <mxGeometry relative="1" as="geometry" />
        </mxCell>
        <UserObject label="&lt;div style=&quot;&quot;&gt;&lt;span style=&quot;font-size: 11.29px;&quot;&gt;Toggle the required &lt;i&gt;Pin Value&amp;nbsp;&lt;/i&gt;&lt;/span&gt;&lt;span style=&quot;font-size: 11.29px; background-color: initial;&quot;&gt;in the required &lt;/span&gt;&lt;i style=&quot;font-size: 11.29px; background-color: initial;&quot;&gt;PORTx&lt;/i&gt;&lt;span style=&quot;font-size: 11.29px; background-color: initial;&quot;&gt; register&lt;/span&gt;&lt;/div&gt;" Function="EN_DIO_Error_T DIO_toggle(uint8_t pinNumber, EN_DIO_PORT_T portNumber);  " tags="Flowchart" id="JtZdGqvp9lfBUKnp-gQf-90">
          <mxCell style="verticalAlign=middle;align=center;overflow=width;vsdxID=274;fillColor=#d5e8d4;shape=stencil(nZBLDoAgDERP0z3SIyjew0SURgSD+Lu9kMZoXLhwN9O+tukAlrNpJg1SzDH4QW/URgNYgZTkjA4UkwJUgGXng+6DX1zLfmoymdXo17xh5zmRJ6Q42BWCfc2oJfdAr+Yv+AP9Cb7OJ3H/2JG1HNGz/84klThPVCc=);strokeColor=#82b366;spacingTop=-1;spacingBottom=-1;spacingLeft=-1;spacingRight=-1;points=[[0,0.5,0],[1,0.5,0],[0.5,1,0],[0.5,0,0]];labelBackgroundColor=none;rounded=1;html=1;whiteSpace=wrap;fontFamily=Calibri;" vertex="1" parent="1">
            <mxGeometry x="604" y="-591" width="133.5" height="51" as="geometry" />
          </mxCell>
        </UserObject>
        <UserObject label="&lt;div style=&quot;font-size: 1px&quot;&gt;&lt;font style=&quot;font-size: 11.29px; direction: ltr; letter-spacing: 0px; line-height: 120%; opacity: 1;&quot;&gt;Return&amp;nbsp;&lt;i&gt;STD_TYPES_OK&lt;/i&gt;&lt;br&gt;&lt;/font&gt;&lt;/div&gt;" Function="EN_DIO_Error_T DIO_init(uint8_t pinNumber, EN_DIO_PORT_T portNumber, EN_DIO_DIRECTION_T direction);" tags="Flowchart" id="JtZdGqvp9lfBUKnp-gQf-91">
          <mxCell style="verticalAlign=middle;align=center;overflow=width;vsdxID=30;shape=stencil(tVLREoIgEPwaHnEQxsl3s/9gEpSJwDko7e+DsEkze2l627vdu5uFRaxyHe8FosR5sCcxqMZ3iO0Rpcp0ApQPCLEasUpaEC3Yi2lS3fOojOhsr3HDmObyMtsVcYqS29Qh5FEfklwrM5OXeUa/yjkcAwfr7TDpiyTfXvjkMR+Vw2A998qaBac5tAKHU1hq3i4oNwjRr9ofvayt/+Rk+yX/4iWA159KpXWKxJx/z0Bopfyw+g4=);spacingTop=-1;spacingBottom=-1;spacingLeft=-1;spacingRight=-1;points=[[0.5,1,0],[0.5,0,0],[0,0.5,0],[1,0.5,0]];labelBackgroundColor=none;rounded=1;html=1;whiteSpace=wrap;fontFamily=Calibri;fillColor=#d5e8d4;strokeColor=#82b366;" vertex="1" parent="1">
            <mxGeometry x="609.25" y="-486" width="123" height="38" as="geometry" />
          </mxCell>
        </UserObject>
        <mxCell id="JtZdGqvp9lfBUKnp-gQf-92" style="edgeStyle=none;curved=1;rounded=0;orthogonalLoop=1;jettySize=auto;html=1;fontSize=12;startSize=8;endSize=8;exitX=0.5;exitY=1;exitDx=0;exitDy=0;exitPerimeter=0;entryX=0.5;entryY=0;entryDx=0;entryDy=0;entryPerimeter=0;" edge="1" parent="1" source="JtZdGqvp9lfBUKnp-gQf-86" target="JtZdGqvp9lfBUKnp-gQf-90">
          <mxGeometry relative="1" as="geometry">
            <mxPoint x="672.24" y="-635" as="sourcePoint" />
            <mxPoint x="670.41" y="-593" as="targetPoint" />
          </mxGeometry>
        </mxCell>
        <UserObject label="&lt;div style=&quot;font-size: 1px&quot;&gt;&lt;font style=&quot;font-size: 11.29px; direction: ltr; letter-spacing: 0px; line-height: 120%; opacity: 1;&quot;&gt;Start&lt;/font&gt;&lt;/div&gt;" Function="EN_DIO_Error_T DIO_init(uint8_t pinNumber, EN_DIO_PORT_T portNumber, EN_DIO_DIRECTION_T direction);" tags="Flowchart" id="JtZdGqvp9lfBUKnp-gQf-93">
          <mxCell style="verticalAlign=middle;align=center;overflow=width;vsdxID=30;shape=stencil(tVLREoIgEPwaHnEQxsl3s/9gEpSJwDko7e+DsEkze2l627vdu5uFRaxyHe8FosR5sCcxqMZ3iO0Rpcp0ApQPCLEasUpaEC3Yi2lS3fOojOhsr3HDmObyMtsVcYqS29Qh5FEfklwrM5OXeUa/yjkcAwfr7TDpiyTfXvjkMR+Vw2A998qaBac5tAKHU1hq3i4oNwjRr9ofvayt/+Rk+yX/4iWA159KpXWKxJx/z0Bopfyw+g4=);spacingTop=-1;spacingBottom=-1;spacingLeft=-1;spacingRight=-1;points=[[0.5,1,0],[0.5,0,0],[0,0.5,0],[1,0.5,0]];labelBackgroundColor=none;rounded=1;html=1;whiteSpace=wrap;fontFamily=Calibri;fillColor=#dae8fc;strokeColor=#6c8ebf;" vertex="1" parent="1">
            <mxGeometry x="609.25" y="-923" width="123" height="38" as="geometry" />
          </mxCell>
        </UserObject>
        <mxCell id="JtZdGqvp9lfBUKnp-gQf-94" style="edgeStyle=none;curved=1;rounded=0;orthogonalLoop=1;jettySize=auto;html=1;fontSize=12;startSize=8;endSize=8;entryX=0.5;entryY=0;entryDx=0;entryDy=0;entryPerimeter=0;" edge="1" parent="1" source="JtZdGqvp9lfBUKnp-gQf-93" target="JtZdGqvp9lfBUKnp-gQf-84">
          <mxGeometry relative="1" as="geometry">
            <mxPoint x="669.24" y="-884" as="sourcePoint" />
            <mxPoint x="670.4" y="-839" as="targetPoint" />
          </mxGeometry>
        </mxCell>
        <UserObject label="&lt;div style=&quot;font-size: 1px&quot;&gt;&lt;font style=&quot;font-size: 11.29px; direction: ltr; letter-spacing: 0px; line-height: 120%; opacity: 1;&quot;&gt;Return&amp;nbsp;&lt;i&gt;STD_TYPES_NOK&lt;/i&gt;&lt;br&gt;&lt;/font&gt;&lt;/div&gt;" Function="EN_DIO_Error_T DIO_init(uint8_t pinNumber, EN_DIO_PORT_T portNumber, EN_DIO_DIRECTION_T direction);" tags="Flowchart" id="JtZdGqvp9lfBUKnp-gQf-95">
          <mxCell style="verticalAlign=middle;align=center;overflow=width;vsdxID=30;shape=stencil(tVLREoIgEPwaHnEQxsl3s/9gEpSJwDko7e+DsEkze2l627vdu5uFRaxyHe8FosR5sCcxqMZ3iO0Rpcp0ApQPCLEasUpaEC3Yi2lS3fOojOhsr3HDmObyMtsVcYqS29Qh5FEfklwrM5OXeUa/yjkcAwfr7TDpiyTfXvjkMR+Vw2A998qaBac5tAKHU1hq3i4oNwjRr9ofvayt/+Rk+yX/4iWA159KpXWKxJx/z0Bopfyw+g4=);spacingTop=-1;spacingBottom=-1;spacingLeft=-1;spacingRight=-1;points=[[0.5,1,0],[0.5,0,0],[0,0.5,0],[1,0.5,0]];labelBackgroundColor=none;rounded=1;html=1;whiteSpace=wrap;fontFamily=Calibri;fillColor=#f8cecc;strokeColor=#b85450;" vertex="1" parent="1">
            <mxGeometry x="805" y="-584.5" width="123" height="38" as="geometry" />
          </mxCell>
        </UserObject>
        <mxCell id="JtZdGqvp9lfBUKnp-gQf-96" style="edgeStyle=orthogonalEdgeStyle;rounded=1;orthogonalLoop=1;jettySize=auto;html=1;fontSize=12;startSize=8;endSize=8;fontFamily=Calibri;entryX=0.5;entryY=0;entryDx=0;entryDy=0;entryPerimeter=0;exitX=1;exitY=0.5;exitDx=0;exitDy=0;exitPerimeter=0;" edge="1" parent="1" source="JtZdGqvp9lfBUKnp-gQf-84" target="JtZdGqvp9lfBUKnp-gQf-95">
          <mxGeometry relative="1" as="geometry">
            <mxPoint x="843" y="-754" as="sourcePoint" />
            <mxPoint x="577" y="-1326" as="targetPoint" />
          </mxGeometry>
        </mxCell>
        <mxCell id="JtZdGqvp9lfBUKnp-gQf-97" value="&lt;font style=&quot;font-size: 11px;&quot;&gt;False&lt;/font&gt;" style="text;html=1;align=center;verticalAlign=middle;resizable=0;points=[];autosize=1;strokeColor=none;fillColor=none;fontSize=16;" vertex="1" parent="1">
          <mxGeometry x="753" y="-828" width="45" height="31" as="geometry" />
        </mxCell>
        <mxCell id="JtZdGqvp9lfBUKnp-gQf-98" value="&lt;font style=&quot;font-size: 11px;&quot;&gt;False&lt;/font&gt;" style="text;html=1;align=center;verticalAlign=middle;resizable=0;points=[];autosize=1;strokeColor=none;fillColor=none;fontSize=16;" vertex="1" parent="1">
          <mxGeometry x="756" y="-705" width="45" height="31" as="geometry" />
        </mxCell>
      </root>
    </mxGraphModel>
  </diagram>
</mxfile>
